<svg width="24.000977" height="19.506836" viewBox="0 0 24.001 19.5068" fill="none" xmlns="http://www.w3.org/2000/svg" xmlns:xlink="http://www.w3.org/1999/xlink">
	<desc>
			Created with Pixso.
	</desc>
	<defs/>
	<path id="Vector" d="M23.9541 2.32324C23.0693 2.71191 22.124 2.97705 21.1289 3.09814C22.1426 2.48682 22.9229 1.52393 23.292 0.375C22.3408 0.930176 21.2871 1.33398 20.165 1.55908C19.2686 0.600098 17.9922 0 16.5742 0C13.8574 0 11.6543 2.20312 11.6543 4.91699C11.6543 5.30713 11.6992 5.68213 11.7812 6.04102C7.69141 5.84814 4.06641 3.88379 1.63965 0.915039C1.21289 1.63721 0.973633 2.47607 0.973633 3.39014C0.973633 5.1001 1.84375 6.60303 3.16211 7.48584C2.35547 7.45996 1.5957 7.23779 0.933594 6.87012L0.933594 6.93115C0.933594 9.31592 2.62695 11.3052 4.87988 11.7578C4.4668 11.8691 4.03125 11.9292 3.58398 11.9292C3.26953 11.9292 2.96875 11.8989 2.66797 11.8428C3.29883 13.7959 5.11328 15.2202 7.27246 15.2598C5.5918 16.5791 3.46289 17.3652 1.16992 17.3652C0.780273 17.3652 0.390625 17.3418 0 17.2979C2.18945 18.6919 4.76758 19.5068 7.55664 19.5068C16.6113 19.5068 21.5557 12.0112 21.5557 5.521C21.5557 5.31201 21.5557 5.10107 21.541 4.89111C22.502 4.20215 23.3408 3.33105 24.001 2.34277L23.9541 2.32324Z" fill="#FFFFFF" fill-opacity="1.000000" fill-rule="nonzero"/>
</svg>
