<svg width="24.000000" height="24.000000" viewBox="0 0 24 24" fill="none" xmlns="http://www.w3.org/2000/svg" xmlns:xlink="http://www.w3.org/1999/xlink">
	<desc>
			Created with Pixso.
	</desc>
	<defs/>
	<path id="Vector" d="M12 0C8.74023 0 8.33301 0.0151367 7.05273 0.0717773C5.77539 0.131836 4.90527 0.333008 4.13965 0.629883C3.35059 0.936035 2.68066 1.34717 2.01367 2.01416C1.34668 2.68115 0.93457 3.3501 0.629883 4.14014C0.333008 4.90479 0.130859 5.7749 0.0722656 7.05322C0.0117188 8.33301 0 8.74023 0 12C0 15.2598 0.0146484 15.667 0.0722656 16.9468C0.131836 18.2241 0.333008 19.0952 0.629883 19.8599C0.935547 20.6479 1.34668 21.3188 2.01367 21.9858C2.68066 22.6519 3.34961 23.0649 4.13965 23.3701C4.90625 23.666 5.77637 23.8691 7.05273 23.9282C8.33301 23.9878 8.74023 24 12 24C15.2598 24 15.667 23.9849 16.9473 23.9282C18.2236 23.8682 19.0947 23.666 19.8604 23.3701C20.6484 23.064 21.3193 22.6519 21.9863 21.9858C22.6523 21.3188 23.0654 20.6509 23.3701 19.8599C23.666 19.0952 23.8691 18.2241 23.9277 16.9468C23.9883 15.667 24 15.2598 24 12C24 8.74023 23.9854 8.33301 23.9277 7.05322C23.8682 5.77588 23.666 4.90381 23.3701 4.14014C23.0645 3.35107 22.6523 2.68115 21.9863 2.01416C21.3193 1.34717 20.6514 0.935059 19.8604 0.629883C19.0947 0.333008 18.2236 0.130859 16.9473 0.0717773C15.667 0.012207 15.2598 0 12 0ZM12 2.16016C15.2031 2.16016 15.585 2.17578 16.8496 2.23096C18.0195 2.28613 18.6553 2.47998 19.0771 2.646C19.6387 2.86279 20.0371 3.12305 20.459 3.54199C20.8779 3.96191 21.1377 4.36084 21.3555 4.92285C21.5186 5.34521 21.7148 5.97998 21.7676 7.1499C21.8252 8.41602 21.8379 8.7959 21.8379 12C21.8379 15.2041 21.8232 15.585 21.7637 16.8501C21.7031 18.02 21.5078 18.6548 21.3428 19.0771C21.1191 19.6392 20.8643 20.0371 20.4443 20.459C20.0254 20.8779 19.6201 21.1382 19.0645 21.355C18.6436 21.519 17.999 21.7148 16.8291 21.7681C15.5547 21.8252 15.1797 21.8379 11.9697 21.8379C8.75879 21.8379 8.38379 21.8232 7.11133 21.7642C5.94043 21.7031 5.29492 21.5078 4.875 21.3428C4.30566 21.1191 3.91504 20.8638 3.49609 20.4438C3.0752 20.0249 2.80566 19.6201 2.5957 19.064C2.43066 18.644 2.2373 17.999 2.17578 16.8291C2.13086 15.5688 2.11523 15.1802 2.11523 11.9849C2.11523 8.78906 2.13086 8.39893 2.17578 7.12402C2.2373 5.9541 2.43066 5.31006 2.5957 4.89014C2.80566 4.31982 3.0752 3.93018 3.49609 3.50879C3.91504 3.08984 4.30566 2.81982 4.875 2.61084C5.29492 2.44482 5.92578 2.25 7.0957 2.18994C8.37109 2.14502 8.74609 2.12988 11.9551 2.12988L12 2.16016ZM12 5.83789C8.59473 5.83789 5.83789 8.59814 5.83789 12C5.83789 15.4048 8.59766 18.1621 12 18.1621C15.4053 18.1621 18.1621 15.4019 18.1621 12C18.1621 8.59521 15.4023 5.83789 12 5.83789ZM12 16C9.79004 16 8 14.21 8 12C8 9.79004 9.79004 8 12 8C14.21 8 16 9.79004 16 12C16 14.21 14.21 16 12 16ZM19.8457 5.59521C19.8457 6.39014 19.2002 7.03516 18.4062 7.03516C17.6113 7.03516 16.9658 6.38916 16.9658 5.59521C16.9658 4.80078 17.6123 4.15576 18.4062 4.15576C19.1992 4.15479 19.8457 4.80078 19.8457 5.59521Z" fill="#FFFFFF" fill-opacity="1.000000" fill-rule="nonzero"/>
</svg>
