<svg width="232.742188" height="21.000004" viewBox="0 0 232.742 21" fill="none" xmlns="http://www.w3.org/2000/svg" xmlns:xlink="http://www.w3.org/1999/xlink">
	<desc>
			Created with Pixso.
	</desc>
	<defs/>
	<path id="Английский язык" d="M4.4803 20.664L0.000304684 20.664L8.5963 1.064L11.8163 1.064L20.4123 20.664L15.8763 20.664L14.2803 17.024L6.0763 17.024L4.4803 20.664ZM12.6843 13.356L10.1643 7.504L7.58831 13.356L12.6843 13.356ZM35.244 20.664L31.184 20.664L31.184 15.204L25.612 15.204L25.612 20.664L21.552 20.664L21.552 6.104L25.612 6.104L25.612 11.424L31.184 11.424L31.184 6.104L35.244 6.104L35.244 20.664ZM41.8268 20.664L37.7668 20.664L37.7668 6.104L49.1348 6.104L49.1348 9.884L41.8268 9.884L41.8268 20.664ZM63.3 20.664L59.24 20.664L59.24 9.884L55.292 9.884L55.292 10.276C55.292 11.06 55.2733 11.7693 55.236 12.404C55.1987 13.02 55.124 13.776 55.012 14.672C54.9187 15.5493 54.7413 16.324 54.48 16.996C54.2373 17.6493 53.92 18.284 53.528 18.9C53.1547 19.516 52.6507 19.992 52.016 20.328C51.3813 20.6453 50.644 20.804 49.804 20.804C49.2813 20.804 48.796 20.7573 48.348 20.664L48.348 17.024C48.46 17.0427 48.628 17.052 48.852 17.052C49.524 17.052 50.0093 16.8467 50.308 16.436C50.6253 16.0253 50.8773 15.428 51.064 14.644C51.3253 13.5427 51.456 11.7507 51.456 9.268L51.456 6.104L63.3 6.104L63.3 20.664ZM75.7895 12.74L69.2655 20.664L65.8215 20.664L65.8215 6.104L69.8815 6.104L69.8815 14.028L76.4055 6.104L79.8495 6.104L79.8495 20.664L75.7895 20.664L75.7895 12.74ZM92.3325 12.74L85.8085 20.664L82.3645 20.664L82.3645 6.104L86.4245 6.104L86.4245 14.028L92.9485 6.104L96.3925 6.104L96.3925 20.664L92.3325 20.664L92.3325 12.74ZM84.5485 0L88.2725 0C88.3098 0.989334 88.7952 1.484 89.7285 1.484C90.6432 1.484 91.1005 0.989334 91.1005 0L94.7965 0C94.7592 1.456 94.2645 2.58533 93.3125 3.388C92.3792 4.172 91.1845 4.564 89.7285 4.564C88.1978 4.564 86.9565 4.172 86.0045 3.388C85.0712 2.604 84.5858 1.47467 84.5485 0ZM109.715 15.204L112.683 16.968C112.049 18.2 111.143 19.1613 109.967 19.852C108.791 20.5427 107.503 20.888 106.103 20.888C103.789 20.888 101.894 20.1973 100.419 18.816C98.9448 17.4347 98.2075 15.6147 98.2075 13.356C98.2075 11.1347 98.9355 9.324 100.391 7.924C101.866 6.50533 103.705 5.796 105.907 5.796C107.363 5.796 108.698 6.09467 109.911 6.692C111.143 7.28933 112.03 8.204 112.571 9.436L109.547 11.396C109.062 10.7613 108.567 10.304 108.063 10.024C107.559 9.72533 106.925 9.576 106.159 9.576C105.039 9.576 104.134 9.93067 103.443 10.64C102.753 11.3307 102.407 12.236 102.407 13.356C102.407 14.4573 102.818 15.3627 103.639 16.072C104.461 16.7627 105.431 17.108 106.551 17.108C107.895 17.108 108.95 16.4733 109.715 15.204ZM118.089 20.664L114.029 20.664L114.029 6.104L118.089 6.104L118.089 11.312L123.241 6.104L128.505 6.104L121.897 12.572L128.645 20.664L123.493 20.664L118.985 15.148L118.089 16.072L118.089 20.664ZM139.582 12.74L133.058 20.664L129.614 20.664L129.614 6.104L133.674 6.104L133.674 14.028L140.198 6.104L143.642 6.104L143.642 20.664L139.582 20.664L139.582 12.74ZM156.125 12.74L149.601 20.664L146.157 20.664L146.157 6.104L150.217 6.104L150.217 14.028L156.741 6.104L160.185 6.104L160.185 20.664L156.125 20.664L156.125 12.74ZM148.341 0L152.065 0C152.103 0.989334 152.588 1.484 153.521 1.484C154.436 1.484 154.893 0.989334 154.893 0L158.589 0C158.552 1.456 158.057 2.58533 157.105 3.388C156.172 4.172 154.977 4.564 153.521 4.564C151.991 4.564 150.749 4.172 149.797 3.388C148.864 2.604 148.379 1.47467 148.341 0ZM175.562 6.104L181.722 6.104L181.722 20.664L177.662 20.664L177.662 16.268L175.786 16.268L172.79 20.664L168.114 20.664L171.838 15.568C170.848 15.2693 170.111 14.7187 169.626 13.916C169.14 13.0947 168.898 12.1427 168.898 11.06C168.898 9.84667 169.243 8.85733 169.934 8.092C170.643 7.308 171.464 6.78533 172.398 6.524C173.35 6.244 174.404 6.104 175.562 6.104ZM173.098 11.228C173.098 12.068 173.788 12.488 175.17 12.488L177.662 12.488L177.662 9.884L175.31 9.884C173.835 9.884 173.098 10.332 173.098 11.228ZM189.959 21C188.354 21 186.991 20.72 185.871 20.16C184.751 19.5813 183.809 18.6293 183.043 17.304L186.095 15.204C186.973 16.6413 188.279 17.36 190.015 17.36C190.613 17.36 191.163 17.2573 191.667 17.052C192.171 16.828 192.423 16.4547 192.423 15.932C192.423 15.316 191.863 15.008 190.743 15.008L187.719 15.008L187.719 11.508L190.603 11.508C191.499 11.508 191.947 11.2 191.947 10.584C191.947 10.136 191.742 9.81867 191.331 9.632C190.939 9.42667 190.501 9.324 190.015 9.324C189.138 9.324 188.41 9.464 187.831 9.744C187.253 10.0053 186.693 10.472 186.151 11.144L183.295 9.24C183.967 8.04533 184.91 7.15867 186.123 6.58C187.337 5.98267 188.671 5.684 190.127 5.684C191.789 5.684 193.207 6.03867 194.383 6.748C195.559 7.43867 196.147 8.54 196.147 10.052C196.147 11.116 195.783 12.012 195.055 12.74C196.101 13.4867 196.623 14.5507 196.623 15.932C196.623 16.8093 196.427 17.584 196.035 18.256C195.643 18.928 195.111 19.46 194.439 19.852C193.786 20.2253 193.077 20.5053 192.311 20.692C191.565 20.8973 190.781 21 189.959 21ZM204.151 20.664L198.439 20.664L198.439 6.104L202.499 6.104L202.499 9.968L204.347 9.968C206.288 9.968 207.837 10.3973 208.995 11.256C210.152 12.1147 210.731 13.4587 210.731 15.288C210.731 17.0987 210.096 18.452 208.827 19.348C207.576 20.2253 206.017 20.664 204.151 20.664ZM204.123 13.748L202.499 13.748L202.499 16.884L204.095 16.884C205.719 16.884 206.531 16.3613 206.531 15.316C206.531 14.868 206.4 14.5227 206.139 14.28C205.877 14.0373 205.588 13.888 205.271 13.832C204.972 13.776 204.589 13.748 204.123 13.748ZM215.603 20.664L211.543 20.664L211.543 6.104L215.603 6.104L215.603 20.664ZM222.186 20.664L218.126 20.664L218.126 6.104L222.186 6.104L222.186 11.312L227.338 6.104L232.602 6.104L225.994 12.572L232.742 20.664L227.59 20.664L223.082 15.148L222.186 16.072L222.186 20.664Z" fill="#000000" fill-opacity="1.000000" fill-rule="evenodd"/>
</svg>
