<svg width="24.000000" height="14.302246" viewBox="0 0 24 14.3022" fill="none" xmlns="http://www.w3.org/2000/svg" xmlns:xlink="http://www.w3.org/1999/xlink">
	<desc>
			Created with Pixso.
	</desc>
	<defs/>
	<path id="Vector" d="M23.0566 14.3022L20.4365 14.3022C19.4453 14.3022 19.1387 13.5132 17.3564 11.7075C15.8047 10.2046 15.1182 10.002 14.7363 10.002C14.2012 10.002 14.0479 10.1553 14.0479 10.8931L14.0479 13.2593C14.0479 13.8965 13.8457 14.2778 12.166 14.2778C9.3916 14.2778 6.31152 12.5981 4.14941 9.46729C0.892578 4.8877 0 1.45117 0 0.739258C0 0.357422 0.15332 0.00146484 0.890625 0.00146484L3.51172 0.00146484C4.17285 0.00146484 4.42773 0.306641 4.68359 1.01855C5.97949 4.75977 8.14355 8.04297 9.03418 8.04297C9.36523 8.04297 9.51855 7.88965 9.51855 7.05127L9.51855 3.18066C9.41602 1.39893 8.47363 1.24707 8.47363 0.611328C8.47363 0.305176 8.72949 0 9.13477 0L13.2578 0C13.8184 0 14.0215 0.305176 14.0215 0.966309L14.0215 6.18408C14.0215 6.74316 14.2764 6.94727 14.4287 6.94727C14.7588 6.94727 15.04 6.74316 15.6494 6.1333C17.5342 4.02051 18.8818 0.763184 18.8818 0.763184C19.0605 0.381836 19.3652 0.0253906 20.0283 0.0253906L22.6484 0.0253906C23.4375 0.0253906 23.6162 0.431152 23.4375 0.991699C23.1064 2.51953 19.9004 7.04834 19.9004 7.04834C19.6211 7.50635 19.5186 7.70898 19.9004 8.22021C20.1797 8.60156 21.0967 9.39062 21.708 10.1025C22.8271 11.3755 23.6914 12.4434 23.9209 13.1826C24.1768 13.9189 23.793 14.3008 23.0557 14.3008L23.0566 14.3022Z" fill="#FFFFFF" fill-opacity="1.000000" fill-rule="nonzero"/>
</svg>
