<svg width="23.998047" height="23.852539" viewBox="0 0 23.998 23.8525" fill="none" xmlns="http://www.w3.org/2000/svg" xmlns:xlink="http://www.w3.org/1999/xlink">
	<desc>
			Created with Pixso.
	</desc>
	<defs/>
	<path id="Vector" d="M23.998 11.999C23.998 5.37207 18.626 0 11.999 0C5.37207 0 0 5.37207 0 11.999C0 17.9883 4.3877 22.9521 10.124 23.8525L10.124 15.4678L7.07715 15.4678L7.07715 11.999L10.124 11.999L10.124 9.35547C10.124 6.34814 11.916 4.68701 14.6562 4.68701C15.9688 4.68701 17.3428 4.92139 17.3428 4.92139L17.3428 7.87451L15.8291 7.87451C14.3389 7.87451 13.874 8.79932 13.874 9.74805L13.874 11.999L17.2021 11.999L16.6699 15.4678L13.874 15.4678L13.874 23.8525C19.6104 22.9521 23.998 17.9883 23.998 11.999Z" fill="#FFFFFF" fill-opacity="1.000000" fill-rule="nonzero"/>
</svg>
