<svg width="32.000000" height="30.000000" viewBox="0 0 32 30" fill="none" xmlns="http://www.w3.org/2000/svg" xmlns:xlink="http://www.w3.org/1999/xlink">
	<desc>
			Created with Pixso.
	</desc>
	<defs/>
	<path id="%" d="M4.49414 27.9146L7.95215 30L27.5439 2.48657L24.2402 0L4.49414 27.9146ZM0 8.1416C0 12.3127 3.18848 15.2407 7.37598 15.2407C11.5635 15.2407 14.7129 12.3127 14.7129 8.1416C14.7129 3.93042 11.5635 1.00269 7.37598 1.00269C3.18848 1.00269 0 3.93042 0 8.1416ZM4.34082 8.1416C4.34082 6.17651 5.7627 4.89307 7.37598 4.89307C8.98926 4.89307 10.3721 6.17651 10.3721 8.1416C10.3721 10.147 9.02734 11.4304 7.37598 11.4304C5.80078 11.4304 4.34082 10.147 4.34082 8.1416ZM17.2871 22.2192C17.2871 26.3904 20.4756 29.3584 24.6631 29.3584C28.8115 29.3584 32 26.3904 32 22.2192C32 18.0081 28.8115 15.1204 24.6631 15.1204C20.4756 15.1204 17.2871 18.0081 17.2871 22.2192ZM21.6279 22.2192C21.6279 20.2139 23.0488 18.9304 24.6631 18.9304C26.2373 18.9304 27.6592 20.2139 27.6592 22.2192C27.6592 24.1846 26.2764 25.468 24.6631 25.468C23.0879 25.468 21.6279 24.1846 21.6279 22.2192Z" fill="#FE002D" fill-opacity="1.000000" fill-rule="nonzero"/>
</svg>
